<?xml version="1.0" encoding="UTF-8"?>
<svg version="1.1" xmlns="http://www.w3.org/2000/svg" width="1000" height="300">
<path d="M0 0 C5.86384998 3.4415643 9.27590214 8.28590696 11.11328125 14.75390625 C13.88833784 28.96812741 9.56247183 43.49907211 6.625 57.375 C6.29163601 58.97134777 5.9582986 60.56770108 5.625 62.1640625 C4.97386826 65.23815562 4.31078384 68.30848691 3.625 71.375 C4.181875 70.67375 4.73875 69.9725 5.3125 69.25 C14.82785248 57.42010232 24.18666825 46.90806724 39.625 43.375 C43.37890625 43.07421875 43.37890625 43.07421875 47.1875 43.0625 C48.44691406 43.04574219 49.70632813 43.02898437 51.00390625 43.01171875 C55.6463608 43.47746662 59.04112462 44.64119467 62.234375 48.13671875 C69.74953227 60.82498086 68.16088617 74.17131911 65.8125 88.25 C65.54228027 89.95216675 65.54228027 89.95216675 65.26660156 91.6887207 C64.29736983 97.69066674 63.18502021 103.62666681 61.875 109.5625 C60.35581033 116.7931787 59.89779486 124.00850633 60.625 131.375 C61.285 132.365 61.945 133.355 62.625 134.375 C65.72994126 134.69345551 67.64226077 134.36924641 70.625 133.375 C70.625 132.715 70.625 132.055 70.625 131.375 C71.615 131.375 72.605 131.375 73.625 131.375 C74.10537281 137.98012616 73.00472077 142.64703168 69.625 148.375 C67.1875 151.1875 67.1875 151.1875 64.625 153.375 C63.861875 154.07625 63.09875 154.7775 62.3125 155.5 C54.55379945 160.91304689 46.86882501 161.20034152 37.625 160.375 C34.86650492 159.68065278 33.13502132 158.81692714 30.625 157.375 C29.75875 156.983125 28.8925 156.59125 28 156.1875 C22.23980639 151.79156277 19.83251929 145.64699084 18.88623047 138.60571289 C17.9173871 126.62374632 20.50719847 115.02752987 23.1875 103.4375 C23.68592614 101.26795167 24.18071297 99.09784659 24.66526794 96.92515564 C25.10093986 94.9729698 25.54918801 93.02360272 25.99829102 91.07446289 C27.3335704 83.39752319 27.3335704 83.39752319 24.625 76.375 C18.26086896 76.4886452 15.1417851 77.88169107 10.5703125 82.30078125 C2.52062816 90.88387841 -3.46104563 100.3519946 -4.375 112.375 C-4.08161923 115.16834476 -3.52204595 117.87975512 -2.9375 120.625 C-0.84505078 131.51915208 0.4925232 142.54271267 -5.6640625 152.44921875 C-8.82088679 156.47543582 -12.26522631 159.34938234 -17.375 160.375 C-25.08162651 161.16340169 -32.02235867 161.20361099 -38.375 156.375 C-43.76607108 151.34333366 -45.93091988 145.36140017 -46.58325195 138.03662109 C-46.68880828 129.42219533 -45.23127013 121.13648733 -43.75 112.6875 C-43.47820726 111.0962043 -43.20697636 109.50481254 -42.9362793 107.91333008 C-41.25679416 98.10996126 -39.44203776 88.3349185 -37.57092285 78.56658936 C-30.39240561 44.08015161 -30.39240561 44.08015161 -33.375 9.375 C-24.36940828 0.83723123 -12.50269802 -5.73933376 0 0 Z M1.625 73.375 C2.625 75.375 2.625 75.375 2.625 75.375 Z " fill="#8A2AE2" transform="translate(653.375,72.625)"/>
<path d="M0 0 C6.58650946 4.80115525 11.34737857 10.99351757 13 19.125 C13.93989054 29.6332844 12.13814945 37.59114267 5.5 45.875 C-1.91104831 53.67247169 -12.33982924 57.84572294 -23 58.234375 C-25.67088852 58.24800198 -28.33080416 58.21480472 -31 58.125 C-30.87882812 57.55394531 -30.75765625 56.98289063 -30.6328125 56.39453125 C-30.06400544 53.64238016 -29.52876063 50.8851305 -29 48.125 C-28.78601563 47.04347656 -28.57203125 45.96195313 -28.3515625 44.84765625 C-27.17838743 38.31901317 -26.46515193 33.3468998 -29 27.125 C-31.23828243 24.34952979 -33.72869956 23.78988421 -37.125 23.125 C-43.77952142 22.61058798 -48.94428003 25.56729475 -53.94140625 29.75 C-67.56715122 43.89395003 -71.41192358 64.74391867 -71.5 83.5625 C-71.50954712 85.30297607 -71.50954712 85.30297607 -71.51928711 87.07861328 C-71.34779183 98.67567102 -69.03958948 108.23841128 -63 118.125 C-62.55333984 119.176875 -62.55333984 119.176875 -62.09765625 120.25 C-60.71551589 122.6109515 -59.49169978 123.07830083 -57 124.125 C-56.11441406 124.65480469 -56.11441406 124.65480469 -55.2109375 125.1953125 C-49.80451745 128.30112828 -45.17022963 129.14891978 -39 128.125 C-21.58156122 122.77423776 -9.20923254 110.69904935 1 96.125 C2.65 96.455 4.3 96.785 6 97.125 C4.96829382 116.72741736 -5.27592336 133.84164649 -19.0625 147.3125 C-32.76133434 159.05090045 -50.32262966 163.3393434 -68 162.125 C-82.20192904 159.63553831 -93.5763953 152.88101974 -102 141.125 C-116.32821035 118.44185099 -117.39546391 90.96102114 -112.03125 65.26953125 C-106.64464624 41.77854515 -93.21256398 19.45238585 -72.8125 6.02734375 C-51.62140535 -6.90709033 -22.41655182 -13.918774 0 0 Z " fill="#8A2AE2" transform="translate(204,71.875)"/>
<path d="M0 0 C7.2907132 5.09257682 12.82653401 10.64812486 17.0859375 18.45703125 C17.72208984 17.47863281 17.72208984 17.47863281 18.37109375 16.48046875 C25.12339096 6.4188039 31.60007515 1.28565203 43.0859375 -2.54296875 C51.34042654 -3.24037018 57.90297024 -2.78351569 65.0859375 1.45703125 C65.70726562 1.81539063 66.32859375 2.17375 66.96875 2.54296875 C68.6484375 3.58203125 68.6484375 3.58203125 71.0859375 5.45703125 C71.0859375 6.11703125 71.0859375 6.77703125 71.0859375 7.45703125 C71.7459375 7.45703125 72.4059375 7.45703125 73.0859375 7.45703125 C74.05056725 9.16181716 75.00734804 10.87104537 75.9609375 12.58203125 C76.49460937 13.53335938 77.02828125 14.4846875 77.578125 15.46484375 C81.02364915 22.30233468 81.47971192 28.15708084 81.5234375 35.70703125 C81.55630859 36.69316406 81.58917969 37.67929688 81.62304688 38.6953125 C81.70036969 49.36586043 77.53675822 56.68114272 70.33447266 64.36279297 C66.48571557 67.94744425 62.2128625 70.72432287 57.7734375 73.51953125 C55.90410764 74.73438511 54.0356088 75.95051868 52.16796875 77.16796875 C51.28447754 77.73870117 50.40098633 78.30943359 49.49072266 78.89746094 C37.47832425 86.68783667 27.17750159 95.46956008 19.42578125 107.65625 C18.98363281 108.25050781 18.54148437 108.84476562 18.0859375 109.45703125 C17.4259375 109.45703125 16.7659375 109.45703125 16.0859375 109.45703125 C14.6484375 107.62890625 14.6484375 107.62890625 13.0859375 105.20703125 C12.5703125 104.418125 12.0546875 103.62921875 11.5234375 102.81640625 C10.25610164 100.73632239 9.1339917 98.6539141 8.0859375 96.45703125 C7.4259375 96.45703125 6.7659375 96.45703125 6.0859375 96.45703125 C4.75045289 94.79208788 3.41756073 93.12506456 2.0859375 91.45703125 C-4.77707465 85.41840495 -12.25817741 80.54333869 -20.1015625 75.89453125 C-31.9534432 68.83654474 -43.84714463 60.22199725 -47.4453125 46.21484375 C-49.67272205 33.1102509 -47.53064003 19.89700083 -39.94140625 8.90625 C-30.57038418 -2.41481135 -13.53014904 -7.33531069 0 0 Z " fill="#8A2BE2" transform="translate(385.9140625,124.54296875)"/>
<path d="M0 0 C5.91666018 4.85977671 8.80241856 9.02481722 9.76171875 16.69921875 C9.07806961 22.16841187 6.93213218 25.63476244 3.01171875 29.44921875 C-4.43333966 34.29716376 -10.88649797 34.8159267 -19.67578125 35.19921875 C-19.83433594 34.25820312 -19.99289062 33.3171875 -20.15625 32.34765625 C-21.71240624 24.04242461 -22.78994459 19.07419265 -29.48828125 13.76171875 C-32.91404654 12.88080767 -36.29832271 13.16586901 -39.67578125 14.19921875 C-41.81912933 15.78850406 -42.57031016 16.64704656 -43.07421875 19.28515625 C-43.02497271 24.09485254 -42.9478863 27.43134021 -39.67578125 31.19921875 C-33.57359291 36.56477805 -27.12725118 40.2124525 -19.80078125 43.63671875 C4.45779413 55.38542038 4.45779413 55.38542038 9.19921875 67.51171875 C11.01891495 73.66353262 10.09945756 78.74429585 8.19921875 84.76171875 C5.78420514 89.1892437 2.83709351 92.6053343 -0.67578125 96.19921875 C-1.17722656 96.72515625 -1.67867187 97.25109375 -2.1953125 97.79296875 C-15.5845363 110.53815393 -34.198006 113.51455216 -51.86328125 113.69921875 C-53.02682129 113.71782959 -54.19036133 113.73644043 -55.38916016 113.75561523 C-67.75580046 113.66559658 -79.40464808 110.76250004 -88.67578125 102.19921875 C-93.66020507 95.93703271 -95.42664468 90.15837109 -94.67578125 82.19921875 C-92.12209356 75.21017874 -86.1336833 69.31652974 -79.4140625 66.125 C-76.33785136 65.08496856 -73.59950089 64.78759587 -70.36328125 64.57421875 C-68.76033203 64.46207031 -68.76033203 64.46207031 -67.125 64.34765625 C-66.31675781 64.29867187 -65.50851562 64.2496875 -64.67578125 64.19921875 C-64.58941406 65.16601562 -64.50304687 66.1328125 -64.4140625 67.12890625 C-63.50507994 75.55158865 -61.9403652 81.76962999 -57.67578125 89.19921875 C-57.34578125 90.18921875 -57.01578125 91.17921875 -56.67578125 92.19921875 C-51.23336965 94.82658987 -45.50964052 96.02944911 -39.67578125 94.19921875 C-36.61270494 92.21955612 -36.61270494 92.21955612 -34.67578125 89.19921875 C-33.94794301 84.10435105 -34.67182624 81.29778263 -37.67578125 77.19921875 C-39.88412217 75.49498678 -42.01632385 73.99275576 -44.36328125 72.51171875 C-45.34880981 71.86988647 -45.34880981 71.86988647 -46.35424805 71.21508789 C-49.82556452 68.96754086 -53.3350896 66.78861605 -56.87109375 64.64453125 C-79.68356915 50.78651059 -79.68356915 50.78651059 -83.25 39.359375 C-84.70755129 31.96464232 -84.56759917 23.79598814 -80.67578125 17.19921875 C-71.38095155 4.26514356 -57.12971956 -2.4251525 -41.7109375 -5.328125 C-28.05674332 -7.17556026 -11.85701321 -7.97968334 0 0 Z " fill="#8A2AE2" transform="translate(583.67578125,120.80078125)"/>
<path d="M0 0 C2.81246718 2.81246718 4.44249713 5.0612784 5 9 C4.3984375 11.12890625 4.3984375 11.12890625 3.375 13.5625 C0.1582931 21.81796457 -1.83154153 30.42392448 -4 39 C1.94 39.33 7.88 39.66 14 40 C15.17774545 42.35549091 15.20010499 43.87219622 15.25 46.5 C15.27578125 47.2940625 15.3015625 48.088125 15.328125 48.90625 C14.85315927 53.38449833 13.29403255 57.68655818 12 62 C5.07 61.67 -1.86 61.34 -9 61 C-9.1546875 63.35125 -9.1546875 63.35125 -9.3125 65.75 C-9.78873838 71.56839069 -10.60565305 77.29755889 -11.5 83.0625 C-12.57354873 90.02896779 -13.62853014 96.95332926 -14 104 C-14.05285156 104.93070312 -14.10570312 105.86140625 -14.16015625 106.8203125 C-14.35210459 112.94596814 -13.79903851 117.50188865 -11 123 C-8.2042355 125.485124 -4.82694092 125.40736259 -1.15625 125.33203125 C1.97534645 124.84981078 4.41598856 123.54326279 7.140625 121.97265625 C9.07934678 120.95849296 10.86577037 120.44856596 13 120 C12.4694097 129.72748889 8.25883482 136.55612462 1.24609375 143.2109375 C-6.25369426 149.18468169 -15.2668897 152.39771412 -24.8125 152.375 C-25.86981323 152.37258301 -25.86981323 152.37258301 -26.94848633 152.37011719 C-32.77233084 152.23341666 -37.121476 151.12920916 -42 148 C-42.9075 147.4225 -43.815 146.845 -44.75 146.25 C-53.13926473 137.86073527 -54.42185339 128.18965554 -54.44262695 116.81860352 C-54.28673534 107.74834646 -53.06575459 98.88702521 -51.6875 89.9375 C-51.52760086 88.89435638 -51.52760086 88.89435638 -51.36447144 87.83013916 C-49.95771469 78.78862817 -48.15272075 69.8949664 -46 61 C-54.415 61.99 -54.415 61.99 -63 63 C-63 59 -63 59 -61.09375 56.81640625 C-47.49566724 45 -47.49566724 45 -43 45 C-42.89300781 43.68773437 -42.78601563 42.37546875 -42.67578125 41.0234375 C-41.9912206 34.22099072 -40.81284379 27.51349947 -39.58081055 20.79345703 C-39.31688512 19.33834488 -39.06013509 17.88191436 -38.81030273 16.42431641 C-38.44489786 14.29282767 -38.05888748 12.16600141 -37.66796875 10.0390625 C-37.44391357 8.78303223 -37.2198584 7.52700195 -36.98901367 6.23291016 C-35.9077468 2.69844068 -34.88927028 1.25058593 -32 -1 C-21.62417503 -4.61977773 -9.88191561 -5.54574017 0 0 Z " fill="#8A2AE2" transform="translate(872,81)"/>
<path d="M0 0 C5.10504089 5.54261583 6.16600164 12.04406067 6.1875 19.375 C5.53176283 29.09701623 2.02499295 39.35939498 -5.375 46 C-10.49939176 49.81245777 -14.39223151 50.62677523 -20.8125 50.375 C-21.05484375 49.76011719 -21.2971875 49.14523438 -21.546875 48.51171875 C-23.84688982 42.2812519 -23.84688982 42.2812519 -28.8125 38.375 C-33.54998102 37.84012311 -35.79260591 37.86505296 -40.0625 40 C-45.75588665 44.91701574 -47.71149574 49.67292636 -48.7109375 57.0078125 C-49.11372336 63.95671475 -47.88723998 70.96088739 -46.89428711 77.82128906 C-45.50495868 87.78850346 -44.77564152 97.78199424 -50.8125 106.375 C-55.0848446 111.50993199 -58.84013919 114.96332869 -65.71484375 115.67578125 C-73.22967357 115.70479604 -77.72079131 115.10720768 -83.5 110 C-90.38573232 102.18376331 -91.68209122 94.05309589 -91.06835938 83.86425781 C-90.21742484 75.58550922 -88.20514001 67.4191538 -86.4453125 59.29638672 C-81.58286455 41.99223782 -81.58286455 41.99223782 -84.8125 25.375 C-87.06245244 24.10731547 -87.06245244 24.10731547 -89.8125 24.375 C-92.02461572 25.85336726 -93.83565438 27.57387399 -95.8125 29.375 C-96.4725 29.375 -97.1325 29.375 -97.8125 29.375 C-98.51189239 21.3319875 -95.76127842 14.45314453 -90.8125 8.125 C-84.54377268 1.61821974 -77.31033786 -1.82391612 -68.30737305 -2.23461914 C-61.67352776 -2.28007126 -54.94550411 -2.3122097 -49.8125 2.375 C-43.70917706 8.76764525 -42.58140755 15.7977037 -41.8125 24.375 C-41.44898438 23.80652344 -41.08546875 23.23804688 -40.7109375 22.65234375 C-33.91244666 12.2105591 -25.59037108 1.14296316 -12.9765625 -2.2890625 C-8.12803219 -3.04172244 -4.32452244 -2.49861297 0 0 Z " fill="#8A2AE2" transform="translate(314.8125,117.625)"/>
<path d="M0 0 C4.70533399 3.86390956 6.41977231 7.73052902 7.0625 13.75 C6.56860352 16.70214844 6.56860352 16.70214844 5.69140625 19.859375 C5.36817383 21.06746826 5.04494141 22.27556152 4.71191406 23.52026367 C4.53503052 24.1656308 4.35814697 24.81099792 4.17590332 25.47592163 C-4.84814998 58.63126923 -10.94560177 93.01386193 -13.8515625 127.2421875 C-14.0137129 129.08124255 -14.17614822 130.92027251 -14.33886719 132.75927734 C-14.65676431 136.35948214 -14.93568903 139.95991118 -15.19238281 143.56494141 C-15.33275175 145.22048258 -15.47429801 146.87592447 -15.6171875 148.53125 C-15.66098541 149.28824188 -15.70478333 150.04523376 -15.74990845 150.82516479 C-16.12750027 154.82134018 -16.8499253 157.11018991 -19.86865234 159.67626953 C-26.52607427 164.17492839 -32.58021062 166.65525205 -40.6796875 165.34765625 C-44.89187887 164.23266442 -47.71903711 162.58748905 -50.15234375 158.91796875 C-57.52574799 145.19451531 -53.90052616 126.57596419 -51.9375 111.75 C-51.83034668 110.91604706 -51.72319336 110.08209412 -51.61279297 109.22286987 C-48.01732646 81.29160347 -43.51909782 53.40336404 -38.1875 25.75 C-37.92646484 24.35696655 -37.92646484 24.35696655 -37.66015625 22.93579102 C-35.8959826 14.24010615 -33.28835081 6.83725157 -26.203125 1.1953125 C-18.31848306 -3.83454529 -8.08918556 -5.37013159 0 0 Z " fill="#8A2AE2" transform="translate(794.9375,68.25)"/>
</svg>
