<?xml version="1.0" encoding="UTF-8"?>
<svg version="1.1" xmlns="http://www.w3.org/2000/svg" width="401" height="300">
<path d="M0 0 C0.78938965 0.00757324 1.5787793 0.01514648 2.39208984 0.02294922 C8.6307228 0.19877574 13.69920634 1.21435628 19.125 4.4375 C19.82753906 4.83839844 20.53007812 5.23929687 21.25390625 5.65234375 C27.30924713 9.61646634 30.59702262 15.24148972 34.125 21.4375 C37.1197505 18.61891129 39.48296745 15.93349987 41.75 12.5 C46.82728013 5.55973853 54.98243943 2.38924174 63.125 0.4375 C74.22124439 -0.72473067 84.05067471 0.57803977 92.9375 7.6875 C93.659375 8.595 94.38125 9.5025 95.125 10.4375 C95.98544922 11.41009766 95.98544922 11.41009766 96.86328125 12.40234375 C104.63361982 21.55622086 105.63715572 30.75190393 105.5625 42.5 C105.58248047 43.61955078 105.60246094 44.73910156 105.62304688 45.89257812 C105.61802317 54.45799505 103.85072735 60.34890897 99.125 67.4375 C98.465 67.4375 97.805 67.4375 97.125 67.4375 C96.72861328 68.31921875 96.72861328 68.31921875 96.32421875 69.21875 C95.07986108 71.52101435 93.77708974 73.0852815 91.9375 74.9375 C91.38707031 75.5046875 90.83664062 76.071875 90.26953125 76.65625 C88.0275467 78.51844482 85.67151461 79.8851513 83.12524414 81.29052734 C79.27307688 83.49942296 75.6217048 86.02462745 71.9375 88.5 C71.14408203 89.02916016 70.35066406 89.55832031 69.53320312 90.10351562 C65.18644868 92.99921817 65.18644868 92.99921817 60.99487305 96.11108398 C59.125 97.4375 59.125 97.4375 57.125 97.4375 C56.75761719 98.31728516 56.75761719 98.31728516 56.3828125 99.21484375 C54.91532821 101.80800699 53.31447506 103.13309764 51 105 C46.39793689 108.93294246 43.12125597 113.30569315 39.75390625 118.3125 C38.94759766 119.364375 38.94759766 119.364375 38.125 120.4375 C37.465 120.4375 36.805 120.4375 36.125 120.4375 C36.125 121.0975 36.125 121.7575 36.125 122.4375 C35.135 122.4375 34.145 122.4375 33.125 122.4375 C31.8359375 120.8203125 31.8359375 120.8203125 30.5 118.5625 C22.88399361 106.6132486 12.69333161 97.89259261 0.49609375 90.87109375 C-1.77961891 89.49516863 -3.84038897 88.00700918 -5.9375 86.375 C-8.71842713 84.21456371 -11.5176618 82.47008498 -14.625 80.8125 C-17.89688708 79.05506152 -20.53012922 77.3940762 -22.875 74.4375 C-22.875 73.7775 -22.875 73.1175 -22.875 72.4375 C-23.47183594 72.18871094 -24.06867188 71.93992187 -24.68359375 71.68359375 C-30.12270741 68.59076441 -32.95001999 62.01676059 -34.75 56.25 C-37.93374391 42.52367897 -35.95210027 27.29246957 -29.1875 14.875 C-22.27773436 4.53645897 -12.16749958 -0.16424951 0 0 Z " fill="#8A2BE2" transform="translate(235.875,92.5625)"/>
<path d="M0 0 C5.15414662 4.87714834 8.63939835 9.25561313 9.3359375 16.48828125 C9.44020275 26.69584968 8.30195272 32.61880113 1.3125 40.25 C-6.4718299 47.57473847 -16.20126271 49.76953433 -26.6875 50.125 C-27.450625 50.08375 -28.21375 50.0425 -29 50 C-28.53356532 46.26852253 -27.9621091 42.74383214 -26.9375 39.125 C-25.53083248 33.63686535 -25.03666595 28.38298423 -27.1875 23.0625 C-29.42613509 20.51508765 -30.67890839 19.73802036 -34 19 C-39.29439814 18.91320659 -42.05454655 19.65359252 -46.125 23.0625 C-47.44504745 24.3464524 -48.73791267 25.65903221 -50 27 C-50.53625 27.55429688 -51.0725 28.10859375 -51.625 28.6796875 C-63.29486848 42.35531462 -65.14971059 62.83781853 -64 80 C-62.78113011 90.27333192 -59.97079596 99.15044297 -52.4375 106.5 C-46.95895064 109.87141499 -42.37947755 110.81138029 -36 110 C-28.87585201 108.03163258 -22.90644244 104.34970567 -17 100 C-16.01 99.278125 -15.02 98.55625 -14 97.8125 C-10.1554068 94.54781751 -7.21469295 90.40115455 -4.1484375 86.42578125 C-2.13941149 84.15740825 -0.78672251 83.07812115 2 82 C3 83 3 83 3.0546875 84.828125 C1.86670938 100.84000397 -6.60538052 115.04789001 -18 126 C-29.03425084 135.17735426 -42.27899518 140.75988998 -56.81640625 140.24609375 C-69.74764813 138.7887266 -80.68506476 134.26054817 -89 124 C-102.28653484 105.77192141 -103.92781008 82.44780826 -100.6640625 60.76855469 C-97.93489659 45.20813171 -91.99180668 31.27984644 -82 19 C-81.48953125 18.33871094 -80.9790625 17.67742187 -80.453125 16.99609375 C-79.36278866 15.6139321 -78.19116883 14.29627196 -77 13 C-76.34 13 -75.68 13 -75 13 C-75 12.34 -75 11.68 -75 11 C-55.93945712 -5.65921464 -22.40339891 -16.98815239 0 0 Z " fill="#8A2AE2" transform="translate(177,84)"/>
</svg>
