<svg xmlns="http://www.w3.org/2000/svg" version="1.1" xmlns:xlink="http://www.w3.org/1999/xlink" xmlns:svgjs="http://svgjs.dev/svgjs" width="1440" height="560" preserveAspectRatio="none" viewBox="0 0 1440 560"><g mask="url(&quot;#SvgjsMask1006&quot;)" fill="none"><rect width="1440" height="560" x="0" y="0" fill="rgba(245, 245, 245, 1)"></rect><path d="M720 667.23C822.75 668.96 917.23 622.28 994.07 554.07 1076.63 480.8 1151.94 390.3 1156.22 280 1160.64 166.58 1102.4 57.67 1016.24-16.24 935.7-85.36 825.94-87.98 720-94.37 603.52-101.41 469.96-135 385.64-54.36 300.71 26.87 315.06 163.24 328.59 280 340.29 381.05 382.69 473.46 455 545 526.88 616.12 618.88 665.53 720 667.23" fill="rgba(252, 252, 252, 1)"></path><path d="M720 530.56C786.48 531.68 847.62 501.47 897.34 457.34 950.76 409.93 999.49 351.37 1002.26 280 1005.12 206.61 967.43 136.14 911.69 88.31 859.57 43.59 788.55 41.89 720 37.76 644.63 33.2 558.21 11.47 503.65 63.65 448.7 116.21 457.98 204.45 466.74 280 474.3 345.38 501.74 405.18 548.53 451.47 595.04 497.49 654.57 529.46 720 530.56" fill="rgba(230, 230, 230, 1)"></path><path d="M720 393.89C750.22 394.4 778.01 380.67 800.61 360.61 824.89 339.06 847.04 312.44 848.3 280 849.6 246.64 832.47 214.61 807.13 192.87 783.44 172.54 751.16 171.77 720 169.89 685.74 167.82 646.46 157.94 621.66 181.66 596.68 205.55 600.9 245.66 604.88 280 608.32 309.72 620.79 336.9 642.06 357.94 663.2 378.86 690.26 393.39 720 393.89" fill="rgba(212, 212, 212, 1)"></path></g><defs><mask id="SvgjsMask1006"><rect width="1440" height="560" fill="#ffffff"></rect></mask></defs></svg>