<svg xmlns="http://www.w3.org/2000/svg" version="1.1" xmlns:xlink="http://www.w3.org/1999/xlink" xmlns:svgjs="http://svgjs.dev/svgjs" width="1600" height="900" preserveAspectRatio="none" viewBox="0 0 1600 900"><g mask="url(&quot;#SvgjsMask23285&quot;)" fill="none"><path d="M1459.89 55.44a5.6 5.6 0 1 0-3.19 10.73 5.6 5.6 0 1 0 3.19-10.73zM1455.33 70.78a5.6 5.6 0 1 0-3.19 10.73 5.6 5.6 0 1 0 3.19-10.73zM1450.77 86.11a5.6 5.6 0 1 0-3.19 10.74 5.6 5.6 0 1 0 3.19-10.74zM1446.21 101.45a5.6 5.6 0 1 0-3.19 10.73 5.6 5.6 0 1 0 3.19-10.73zM1453.67 20.21a5.6 5.6 0 1 0-3.19 10.73 5.6 5.6 0 1 0 3.19-10.73zM1449.11 35.54a5.6 5.6 0 1 0-3.19 10.74 5.6 5.6 0 1 0 3.19-10.74zM1444.55 50.88a5.6 5.6 0 1 0-3.19 10.73 5.6 5.6 0 1 0 3.19-10.73zM1439.99 66.21a5.6 5.6 0 1 0-3.19 10.74 5.6 5.6 0 1 0 3.19-10.74z" fill="#d3b714"></path><rect width="167.44" height="167.44" clip-path="url(&quot;#SvgjsClipPath23286&quot;)" x="1135.26" y="403.84" fill="url(&quot;#SvgjsPattern23287&quot;)" transform="rotate(252.67, 1218.98, 487.56)"></rect><rect width="492" height="492" clip-path="url(&quot;#SvgjsClipPath23288&quot;)" x="563.36" y="305.37" fill="url(&quot;#SvgjsPattern23289&quot;)" transform="rotate(195.57, 809.36, 551.37)"></rect><rect width="468" height="468" clip-path="url(&quot;#SvgjsClipPath23290&quot;)" x="287.62" y="21.78" fill="url(&quot;#SvgjsPattern23291&quot;)" transform="rotate(75.01, 521.62, 255.78)"></rect><rect width="252" height="252" clip-path="url(&quot;#SvgjsClipPath23292&quot;)" x="1472.12" y="294.21" fill="url(&quot;#SvgjsPattern23293&quot;)" transform="rotate(45.1, 1598.12, 420.21)"></rect><path d="M1010.81 554.74 L917.77 424.21999999999997L899.4468721405891 554.3231278594109z" stroke="rgba(53, 255, 0, 1)" stroke-width="1"></path><rect width="100.6" height="100.6" clip-path="url(&quot;#SvgjsClipPath23294&quot;)" x="1334.9" y="146.03" fill="url(&quot;#SvgjsPattern23295&quot;)" transform="rotate(312.55, 1385.2, 196.33)"></rect><path d="M226.67000000000002 721.58 L270.46 673.33L276.50693151011995 725.39693151012z" fill="rgba(53, 255, 0, 1)"></path></g><defs><mask id="SvgjsMask23285"><rect width="1600" height="900" fill="#ffffff"></rect></mask><pattern x="0" y="0" width="11.96" height="11.96" patternUnits="userSpaceOnUse" id="SvgjsPattern23287"><path d="M5.98 1L5.98 10.96M1 5.98L10.96 5.98" stroke="rgba(53, 255, 0, 1)" fill="none" stroke-width="3.22"></path></pattern><clipPath id="SvgjsClipPath23286"><circle r="41.86" cx="1218.98" cy="487.56"></circle></clipPath><pattern x="0" y="0" width="6" height="6" patternUnits="userSpaceOnUse" id="SvgjsPattern23289"><path d="M0 6L3 0L6 6" stroke="#037b0b" fill="none"></path></pattern><clipPath id="SvgjsClipPath23288"><circle r="123" cx="809.36" cy="551.37"></circle></clipPath><pattern x="0" y="0" width="468" height="6" patternUnits="userSpaceOnUse" id="SvgjsPattern23291"><rect width="468" height="3" x="0" y="0" fill="#e73635"></rect><rect width="468" height="3" x="0" y="3" fill="rgba(0, 0, 0, 0)"></rect></pattern><clipPath id="SvgjsClipPath23290"><circle r="117" cx="521.62" cy="255.78"></circle></clipPath><pattern x="0" y="0" width="6" height="6" patternUnits="userSpaceOnUse" id="SvgjsPattern23293"><path d="M3 1L3 5M1 3L5 3" stroke="rgba(255, 0, 201, 1)" fill="none" stroke-width="1.51"></path></pattern><clipPath id="SvgjsClipPath23292"><circle r="63" cx="1598.12" cy="420.21"></circle></clipPath><pattern x="0" y="0" width="10.06" height="10.06" patternUnits="userSpaceOnUse" id="SvgjsPattern23295"><path d="M5.03 1L5.03 9.06M1 5.03L9.06 5.03" stroke="#e73635" fill="none" stroke-width="2.3"></path></pattern><clipPath id="SvgjsClipPath23294"><circle r="25.15" cx="1385.2" cy="196.33"></circle></clipPath></defs></svg>