<svg xmlns="http://www.w3.org/2000/svg" version="1.1" xmlns:xlink="http://www.w3.org/1999/xlink" xmlns:svgjs="http://svgjs.dev/svgjs" width="1440" height="560" preserveAspectRatio="none" viewBox="0 0 1440 560"><g mask="url(&quot;#SvgjsMask2192&quot;)" fill="none"><rect width="1440" height="560" x="0" y="0" fill="rgba(250, 80, 90, 1)"></rect><use xlink:href="#SvgjsG2197" transform="translate(0, 0)" fill="rgba(255, 255, 255, 1)"></use><use xlink:href="#SvgjsG2197" transform="translate(1080, 0)" fill="rgba(255, 255, 255, 1)"></use></g><defs><mask id="SvgjsMask2192"><rect width="1440" height="560" fill="#ffffff"></rect></mask><g id="SvgjsG2194"><path d="M11.33 13.77l2.16-8.07c0.67-2.51-0.7-4.81-2.97-5.41A4.27 4.27 0 0 0 5.29 3.31a4.26 4.26 0 0 0-5.23 2.99C-0.55 8.59 0.76 10.93 3.26 11.59L11.33 13.77z"></path></g><g id="SvgjsG2193"><path d="M11.22 3.24L9.64 16.25l-2.12-7.29-3.62 2.17L5.5 0.21 6.46 5.99l4.76-2.75z" fill-rule="evenodd"></path></g><g id="SvgjsG2195"><path d="M6.45 2.99c0.79-0.46 1.48 0.01 1.81 0.3l2.81 2.63c0.59 0.57-0.12 1.36-0.71 0.81l-2.56-2.42-0.26 0.14L12.06 8.79 10.67 9.59l2.34 4.06c0.4 0.69-0.64 1.29-1.04 0.6L9.61 10.17l-0.42 0.24L11.55 14.49c0.4 0.7-0.64 1.3-1.05 0.61l-2.34-4.06L6.76 11.85l-1.5-6.07-0.24 0.13 0.82 3.44c0.16 0.76-0.87 1.01-1.06 0.21L3.91 5.81c-0.11-0.42-0.16-1.25 0.63-1.72l1.91-1.1z"></path><path d="M3.58 2.82a1.31 1.31 0 1 0 2.26-1.3 1.31 1.31 0 1 0-2.26 1.3"></path></g><g id="SvgjsG2196"><path d="M3.47 2.89a1.3 1.3 0 1 0 2.26-1.31 1.3 1.3 0 1 0-2.26 1.31"></path><path d="M10.24 15.1a0.73 0.73 0 0 0 1.27-0.74l-3.07-5.31 0.29-0.17 3.06 5.32a0.73 0.73 0 0 0 1.27-0.73l-5.29-9.17 0.28-0.16 1.95 3.38c0.39 0.68 1.28 0.17 0.88-0.51l-1.99-3.45c-0.43-0.75-1.3-1.23-2.18-0.73l-2.53 1.47C3.38 4.76 3.25 5.7 3.72 6.51l2.01 3.48c0.39 0.67 1.28 0.16 0.89-0.52L4.67 6.09 4.95 5.93l5.29 9.17z"></path></g><g id="SvgjsG2197"><use xlink:href="#SvgjsG2193" transform="translate(0, 0) scale(2.4)" fill="rgba(255, 255, 255, 1)"></use><use xlink:href="#SvgjsG2194" transform="translate(0, 108) scale(2.4)" fill="rgba(255, 255, 255, 1)"></use><use xlink:href="#SvgjsG2195" transform="translate(0, 216) scale(2.4)" fill="rgba(255, 255, 255, 1)"></use><use xlink:href="#SvgjsG2194" transform="translate(0, 324) scale(2.4)" fill="rgba(255, 255, 255, 1)"></use><use xlink:href="#SvgjsG2196" transform="translate(0, 432) scale(2.4)" fill="rgba(255, 255, 255, 1)"></use><use xlink:href="#SvgjsG2195" transform="translate(0, 540) scale(2.4)" fill="rgba(255, 255, 255, 1)"></use><use xlink:href="#SvgjsG2193" transform="translate(108, 0) scale(2.4)" fill="rgba(255, 255, 255, 1)"></use><use xlink:href="#SvgjsG2195" transform="translate(108, 108) scale(2.4)" fill="rgba(255, 255, 255, 1)"></use><use xlink:href="#SvgjsG2193" transform="translate(108, 216) scale(2.4)" fill="rgba(255, 255, 255, 1)"></use><use xlink:href="#SvgjsG2195" transform="translate(108, 324) scale(2.4)" fill="rgba(255, 255, 255, 1)"></use><use xlink:href="#SvgjsG2194" transform="translate(108, 432) scale(2.4)" fill="rgba(255, 255, 255, 1)"></use><use xlink:href="#SvgjsG2195" transform="translate(108, 540) scale(2.4)" fill="rgba(255, 255, 255, 1)"></use><use xlink:href="#SvgjsG2193" transform="translate(216, 0) scale(2.4)" fill="rgba(255, 255, 255, 1)"></use><use xlink:href="#SvgjsG2194" transform="translate(216, 108) scale(2.4)" fill="rgba(255, 255, 255, 1)"></use><use xlink:href="#SvgjsG2195" transform="translate(216, 216) scale(2.4)" fill="rgba(255, 255, 255, 1)"></use><use xlink:href="#SvgjsG2195" transform="translate(216, 324) scale(2.4)" fill="rgba(255, 255, 255, 1)"></use><use xlink:href="#SvgjsG2195" transform="translate(216, 432) scale(2.4)" fill="rgba(255, 255, 255, 1)"></use><use xlink:href="#SvgjsG2196" transform="translate(216, 540) scale(2.4)" fill="rgba(255, 255, 255, 1)"></use><use xlink:href="#SvgjsG2194" transform="translate(324, 0) scale(2.4)" fill="rgba(255, 255, 255, 1)"></use><use xlink:href="#SvgjsG2194" transform="translate(324, 108) scale(2.4)" fill="rgba(255, 255, 255, 1)"></use><use xlink:href="#SvgjsG2194" transform="translate(324, 216) scale(2.4)" fill="rgba(255, 255, 255, 1)"></use><use xlink:href="#SvgjsG2193" transform="translate(324, 324) scale(2.4)" fill="rgba(255, 255, 255, 1)"></use><use xlink:href="#SvgjsG2195" transform="translate(324, 432) scale(2.4)" fill="rgba(255, 255, 255, 1)"></use><use xlink:href="#SvgjsG2195" transform="translate(324, 540) scale(2.4)" fill="rgba(255, 255, 255, 1)"></use><use xlink:href="#SvgjsG2193" transform="translate(432, 0) scale(2.4)" fill="rgba(255, 255, 255, 1)"></use><use xlink:href="#SvgjsG2194" transform="translate(432, 108) scale(2.4)" fill="rgba(255, 255, 255, 1)"></use><use xlink:href="#SvgjsG2196" transform="translate(432, 216) scale(2.4)" fill="rgba(255, 255, 255, 1)"></use><use xlink:href="#SvgjsG2193" transform="translate(432, 324) scale(2.4)" fill="rgba(255, 255, 255, 1)"></use><use xlink:href="#SvgjsG2194" transform="translate(432, 432) scale(2.4)" fill="rgba(255, 255, 255, 1)"></use><use xlink:href="#SvgjsG2195" transform="translate(432, 540) scale(2.4)" fill="rgba(255, 255, 255, 1)"></use><use xlink:href="#SvgjsG2195" transform="translate(540, 0) scale(2.4)" fill="rgba(255, 255, 255, 1)"></use><use xlink:href="#SvgjsG2195" transform="translate(540, 108) scale(2.4)" fill="rgba(255, 255, 255, 1)"></use><use xlink:href="#SvgjsG2194" transform="translate(540, 216) scale(2.4)" fill="rgba(255, 255, 255, 1)"></use><use xlink:href="#SvgjsG2193" transform="translate(540, 324) scale(2.4)" fill="rgba(255, 255, 255, 1)"></use><use xlink:href="#SvgjsG2196" transform="translate(540, 432) scale(2.4)" fill="rgba(255, 255, 255, 1)"></use><use xlink:href="#SvgjsG2196" transform="translate(540, 540) scale(2.4)" fill="rgba(255, 255, 255, 1)"></use><use xlink:href="#SvgjsG2196" transform="translate(648, 0) scale(2.4)" fill="rgba(255, 255, 255, 1)"></use><use xlink:href="#SvgjsG2195" transform="translate(648, 108) scale(2.4)" fill="rgba(255, 255, 255, 1)"></use><use xlink:href="#SvgjsG2193" transform="translate(648, 216) scale(2.4)" fill="rgba(255, 255, 255, 1)"></use><use xlink:href="#SvgjsG2195" transform="translate(648, 324) scale(2.4)" fill="rgba(255, 255, 255, 1)"></use><use xlink:href="#SvgjsG2196" transform="translate(648, 432) scale(2.4)" fill="rgba(255, 255, 255, 1)"></use><use xlink:href="#SvgjsG2194" transform="translate(648, 540) scale(2.4)" fill="rgba(255, 255, 255, 1)"></use><use xlink:href="#SvgjsG2196" transform="translate(756, 0) scale(2.4)" fill="rgba(255, 255, 255, 1)"></use><use xlink:href="#SvgjsG2193" transform="translate(756, 108) scale(2.4)" fill="rgba(255, 255, 255, 1)"></use><use xlink:href="#SvgjsG2196" transform="translate(756, 216) scale(2.4)" fill="rgba(255, 255, 255, 1)"></use><use xlink:href="#SvgjsG2193" transform="translate(756, 324) scale(2.4)" fill="rgba(255, 255, 255, 1)"></use><use xlink:href="#SvgjsG2195" transform="translate(756, 432) scale(2.4)" fill="rgba(255, 255, 255, 1)"></use><use xlink:href="#SvgjsG2195" transform="translate(756, 540) scale(2.4)" fill="rgba(255, 255, 255, 1)"></use><use xlink:href="#SvgjsG2193" transform="translate(864, 0) scale(2.4)" fill="rgba(255, 255, 255, 1)"></use><use xlink:href="#SvgjsG2196" transform="translate(864, 108) scale(2.4)" fill="rgba(255, 255, 255, 1)"></use><use xlink:href="#SvgjsG2193" transform="translate(864, 216) scale(2.4)" fill="rgba(255, 255, 255, 1)"></use><use xlink:href="#SvgjsG2194" transform="translate(864, 324) scale(2.4)" fill="rgba(255, 255, 255, 1)"></use><use xlink:href="#SvgjsG2194" transform="translate(864, 432) scale(2.4)" fill="rgba(255, 255, 255, 1)"></use><use xlink:href="#SvgjsG2196" transform="translate(864, 540) scale(2.4)" fill="rgba(255, 255, 255, 1)"></use><use xlink:href="#SvgjsG2196" transform="translate(972, 0) scale(2.4)" fill="rgba(255, 255, 255, 1)"></use><use xlink:href="#SvgjsG2194" transform="translate(972, 108) scale(2.4)" fill="rgba(255, 255, 255, 1)"></use><use xlink:href="#SvgjsG2196" transform="translate(972, 216) scale(2.4)" fill="rgba(255, 255, 255, 1)"></use><use xlink:href="#SvgjsG2194" transform="translate(972, 324) scale(2.4)" fill="rgba(255, 255, 255, 1)"></use><use xlink:href="#SvgjsG2196" transform="translate(972, 432) scale(2.4)" fill="rgba(255, 255, 255, 1)"></use><use xlink:href="#SvgjsG2193" transform="translate(972, 540) scale(2.4)" fill="rgba(255, 255, 255, 1)"></use></g></defs></svg>