<svg xmlns="http://www.w3.org/2000/svg" version="1.1" xmlns:xlink="http://www.w3.org/1999/xlink" xmlns:svgjs="http://svgjs.dev/svgjs" width="1600" height="900" preserveAspectRatio="none" viewBox="0 0 1600 900"><g mask="url(&quot;#SvgjsMask1095&quot;)" fill="none"><path d="M598.27 786.56a5.6 5.6 0 1 0-9.65 5.69 5.6 5.6 0 1 0 9.65-5.69zM584.48 794.68a5.6 5.6 0 1 0-9.65 5.69 5.6 5.6 0 1 0 9.65-5.69zM570.7 802.8a5.6 5.6 0 1 0-9.65 5.69 5.6 5.6 0 1 0 9.65-5.69zM556.91 810.93a5.6 5.6 0 1 0-9.65 5.68 5.6 5.6 0 1 0 9.65-5.68zM617.72 756.54a5.6 5.6 0 1 0-9.65 5.68 5.6 5.6 0 1 0 9.65-5.68zM603.94 764.66a5.6 5.6 0 1 0-9.65 5.68 5.6 5.6 0 1 0 9.65-5.68zM590.15 772.78a5.6 5.6 0 1 0-9.65 5.68 5.6 5.6 0 1 0 9.65-5.68zM576.36 780.9a5.6 5.6 0 1 0-9.65 5.68 5.6 5.6 0 1 0 9.65-5.68zM637.17 726.51a5.6 5.6 0 1 0-9.65 5.68 5.6 5.6 0 1 0 9.65-5.68zM623.39 734.63a5.6 5.6 0 1 0-9.65 5.68 5.6 5.6 0 1 0 9.65-5.68zM609.6 742.75a5.6 5.6 0 1 0-9.65 5.68 5.6 5.6 0 1 0 9.65-5.68zM595.81 750.87a5.6 5.6 0 1 0-9.65 5.68 5.6 5.6 0 1 0 9.65-5.68z" fill="#037b0b"></path><path d="M773.84 696.53 L718.0600000000001 438.65999999999997L643.1594389149069 670.3855610850932z" fill="#d3b714"></path><circle r="75" cx="1373.68" cy="505.69" stroke="#d3b714" stroke-width="1.35" stroke-dasharray="3, 2"></circle><path d="M1331.31 495.52 L1155.52 255.29999999999998L1073.372215955659 545.4527840443409z" stroke="#037b0b" stroke-width="1" stroke-dasharray="3, 2"></path><rect width="402.16" height="402.16" clip-path="url(&quot;#SvgjsClipPath1096&quot;)" x="147.02" y="352.15" fill="url(&quot;#SvgjsPattern1097&quot;)" transform="rotate(135.12, 348.1, 553.23)"></rect><circle r="75" cx="163.99" cy="141.11" fill="#037b0b"></circle><rect width="574.08" height="574.08" clip-path="url(&quot;#SvgjsClipPath1098&quot;)" x="41.52" y="-85.65" fill="url(&quot;#SvgjsPattern1099&quot;)" transform="rotate(221.41, 328.56, 201.39)"></rect><rect width="84" height="84" clip-path="url(&quot;#SvgjsClipPath1100&quot;)" x="535.01" y="-20.23" fill="url(&quot;#SvgjsPattern1101&quot;)" transform="rotate(59.19, 577.01, 21.77)"></rect></g><defs><mask id="SvgjsMask1095"><rect width="1600" height="900" fill="#ffffff"></rect></mask><pattern x="0" y="0" width="9.14" height="9.14" patternUnits="userSpaceOnUse" id="SvgjsPattern1097"><path d="M0 9.14L4.57 0L9.14 9.14" stroke="#037b0b" fill="none"></path></pattern><clipPath id="SvgjsClipPath1096"><circle r="100.54" cx="348.1" cy="553.23"></circle></clipPath><pattern x="0" y="0" width="6.24" height="6.24" patternUnits="userSpaceOnUse" id="SvgjsPattern1099"><path d="M0 6.24L3.12 0L6.24 6.24" stroke="#037b0b" fill="none"></path></pattern><clipPath id="SvgjsClipPath1098"><circle r="143.52" cx="328.56" cy="201.39"></circle></clipPath><pattern x="0" y="0" width="6" height="6" patternUnits="userSpaceOnUse" id="SvgjsPattern1101"><path d="M3 1L3 5M1 3L5 3" stroke="#d3b714" fill="none" stroke-width="1"></path></pattern><clipPath id="SvgjsClipPath1100"><circle r="21" cx="577.01" cy="21.77"></circle></clipPath></defs></svg>