<svg xmlns="http://www.w3.org/2000/svg" version="1.1" xmlns:xlink="http://www.w3.org/1999/xlink" xmlns:svgjs="http://svgjs.dev/svgjs" width="1440" height="560" preserveAspectRatio="none" viewBox="0 0 1440 560"><g mask="url(&quot;#SvgjsMask1003&quot;)" fill="none"><rect width="1440" height="560" x="0" y="0" fill="rgba(179, 91, 76, 1)"></rect><path d="M 0,125 C 57.6,128.6 172.8,154.8 288,143 C 403.2,131.2 460.8,38.6 576,66 C 691.2,93.4 748.8,269.4 864,280 C 979.2,290.6 1036.8,137.4 1152,119 C 1267.2,100.6 1382.4,174.2 1440,188L1440 560L0 560z" fill="rgba(253, 106, 81, 1)"></path><path d="M 0,379 C 96,397.6 288,485.8 480,472 C 672,458.2 768,295.4 960,310 C 1152,324.6 1344,498 1440,545L1440 560L0 560z" fill="rgba(234, 83, 83, 1)"></path></g><defs><mask id="SvgjsMask1003"><rect width="1440" height="560" fill="#ffffff"></rect></mask></defs></svg>